<svg width="260" height="66" viewBox="0 0 260 66" fill="none" xmlns="http://www.w3.org/2000/svg">
<rect x="0.533203" width="258.867" height="65.8" rx="32.6667" fill="#66BEFD"/>
<path d="M61.5759 9.00934C61.5634 9.06534 61.5541 9.13067 61.5479 9.20534C61.5417 9.27379 61.5354 9.34845 61.5292 9.42934C61.523 9.51023 61.5168 9.5849 61.5106 9.65334C61.5043 9.79645 61.495 9.98312 61.4826 10.2133C61.4763 10.4436 61.4701 10.6987 61.4639 10.9787C61.4577 11.2525 61.4514 11.5325 61.4452 11.8187C61.439 12.0987 61.4359 12.36 61.4359 12.6027C61.4359 12.8453 61.4359 13.1129 61.4359 13.4053C61.4421 13.6916 61.4483 13.9778 61.4546 14.264C61.467 14.544 61.4732 14.8053 61.4732 15.048C61.4794 15.2845 61.4826 15.4742 61.4826 15.6173C61.4826 15.9036 61.4483 16.1307 61.3799 16.2987C61.3114 16.4667 61.215 16.5849 61.0906 16.6533C60.9723 16.728 60.8292 16.7653 60.6612 16.7653C60.4808 16.7653 60.2786 16.7218 60.0546 16.6347C59.8306 16.5538 59.6159 16.4418 59.4106 16.2987C59.2114 16.1556 59.0466 15.9907 58.9159 15.804C58.7852 15.6173 58.7199 15.4213 58.7199 15.216C58.7199 14.936 58.8257 14.6622 59.0372 14.3947C59.255 14.1271 59.535 13.8782 59.8772 13.648C60.2257 13.4178 60.5928 13.2311 60.9786 13.088C61.4017 12.92 61.8341 12.7956 62.2759 12.7147C62.7177 12.6276 63.1221 12.584 63.4892 12.584C63.9434 12.584 64.3448 12.6618 64.6932 12.8173C65.0479 12.9729 65.3248 13.1907 65.5239 13.4707C65.7292 13.7445 65.8319 14.068 65.8319 14.4413C65.8319 14.8147 65.7541 15.1445 65.5986 15.4307C65.4492 15.7169 65.2252 15.9565 64.9266 16.1493C64.6341 16.3422 64.2732 16.4916 63.8439 16.5973C63.6386 16.6409 63.4332 16.6689 63.2279 16.6813C63.0288 16.7 62.8483 16.7156 62.6866 16.728L62.4252 15.972C62.5994 15.9782 62.7799 15.9782 62.9665 15.972C63.1594 15.9658 63.343 15.944 63.5172 15.9067C63.791 15.8569 64.0461 15.7729 64.2826 15.6547C64.5252 15.5302 64.7181 15.3685 64.8612 15.1693C65.0106 14.9702 65.0852 14.7307 65.0852 14.4507C65.0852 14.1831 65.0137 13.9591 64.8706 13.7787C64.7274 13.5982 64.5346 13.4613 64.2919 13.368C64.0492 13.2747 63.7786 13.228 63.4799 13.228C63.0692 13.228 62.6679 13.2716 62.2759 13.3587C61.8839 13.4458 61.4857 13.5702 61.0812 13.732C60.7826 13.844 60.5088 13.984 60.2599 14.152C60.011 14.3138 59.8119 14.4849 59.6626 14.6653C59.5194 14.8458 59.4479 15.0169 59.4479 15.1787C59.4479 15.2845 59.4821 15.3871 59.5506 15.4867C59.6252 15.58 59.7154 15.664 59.8212 15.7387C59.927 15.8133 60.039 15.8725 60.1572 15.916C60.2754 15.9533 60.3781 15.972 60.4652 15.972C60.571 15.972 60.6519 15.9347 60.7079 15.86C60.7701 15.7853 60.8012 15.6702 60.8012 15.5147C60.8012 15.3342 60.7981 15.0853 60.7919 14.768C60.7857 14.4445 60.7794 14.096 60.7732 13.7227C60.767 13.3431 60.7639 12.9822 60.7639 12.64C60.7639 12.3725 60.7639 12.0862 60.7639 11.7813C60.7701 11.4765 60.7732 11.1809 60.7732 10.8947C60.7794 10.6085 60.7826 10.3565 60.7826 10.1387C60.7888 9.9209 60.7919 9.76534 60.7919 9.67201C60.7919 9.60979 60.7888 9.53823 60.7826 9.45734C60.7826 9.37023 60.7794 9.28623 60.7732 9.20534C60.767 9.12445 60.7577 9.05912 60.7452 9.00934H61.5759ZM64.4692 10.0453C64.6932 10.1636 64.9421 10.3067 65.2159 10.4747C65.4897 10.6365 65.751 10.8013 65.9999 10.9693C66.255 11.1373 66.4572 11.2836 66.6066 11.408L66.2239 12.0053C66.1119 11.8933 65.9688 11.7751 65.7946 11.6507C65.6203 11.52 65.4337 11.3925 65.2346 11.268C65.0354 11.1373 64.8394 11.016 64.6465 10.904C64.4537 10.7858 64.2826 10.6862 64.1332 10.6053L64.4692 10.0453ZM58.8692 10.6893C59.1243 10.7205 59.3421 10.7422 59.5226 10.7547C59.7092 10.7609 59.8897 10.764 60.0639 10.764C60.2941 10.764 60.5523 10.7516 60.8386 10.7267C61.1248 10.7018 61.4203 10.6707 61.7252 10.6333C62.0301 10.5898 62.3257 10.54 62.6119 10.484C62.9043 10.4218 63.1657 10.3565 63.3959 10.288L63.4146 11.016C63.1719 11.072 62.9012 11.128 62.6026 11.184C62.3039 11.2338 61.999 11.2773 61.6879 11.3147C61.383 11.352 61.0906 11.3831 60.8106 11.408C60.5306 11.4329 60.2879 11.4453 60.0826 11.4453C59.815 11.4453 59.5879 11.4422 59.4012 11.436C59.2208 11.4298 59.0497 11.4173 58.8879 11.3987L58.8692 10.6893ZM70.4425 9.61601H76.8359V10.2227H70.4425V9.61601ZM70.5452 10.9507H75.9492V11.5387H70.5452V10.9507ZM69.4719 12.2853H75.0999V12.892H69.4719V12.2853ZM70.5639 8.60801L71.2919 8.76667C71.0679 9.48845 70.7723 10.1605 70.4052 10.7827C70.0381 11.3987 69.6305 11.9151 69.1825 12.332C69.139 12.2885 69.0768 12.2387 68.9959 12.1827C68.9212 12.1205 68.8434 12.0613 68.7625 12.0053C68.6817 11.9493 68.6101 11.9058 68.5479 11.8747C69.0021 11.5013 69.4034 11.0285 69.7519 10.456C70.1003 9.87734 70.371 9.26134 70.5639 8.60801ZM73.0652 13.06L73.7372 13.284C73.4074 13.8751 73.0092 14.4227 72.5425 14.9267C72.0759 15.4245 71.5688 15.8725 71.0212 16.2707C70.4799 16.6627 69.9105 17.0018 69.3132 17.288C69.2821 17.2382 69.2354 17.1791 69.1732 17.1107C69.111 17.0422 69.0457 16.9738 68.9772 16.9053C68.9088 16.8431 68.8465 16.7902 68.7905 16.7467C69.3879 16.4916 69.9541 16.1805 70.4892 15.8133C71.0305 15.4462 71.5221 15.0293 71.9639 14.5627C72.4057 14.096 72.7728 13.5951 73.0652 13.06ZM74.8385 12.2853H75.5479C75.5541 12.8951 75.5665 13.4582 75.5852 13.9747C75.6101 14.4849 75.6506 14.9329 75.7066 15.3187C75.7688 15.6982 75.8559 15.9969 75.9679 16.2147C76.0799 16.4262 76.223 16.532 76.3972 16.532C76.4905 16.532 76.5528 16.4107 76.5839 16.168C76.615 15.9191 76.6337 15.5956 76.6399 15.1973C76.7145 15.272 76.7954 15.3498 76.8825 15.4307C76.9759 15.5053 77.0599 15.5676 77.1345 15.6173C77.1159 16.0031 77.0817 16.3142 77.0319 16.5507C76.9821 16.7871 76.9043 16.9551 76.7985 17.0547C76.6928 17.1605 76.5434 17.2165 76.3505 17.2227C76.0208 17.2227 75.7563 17.1013 75.5572 16.8587C75.3581 16.616 75.2057 16.2769 75.0999 15.8413C75.0003 15.3996 74.9319 14.88 74.8945 14.2827C74.8634 13.6791 74.8448 13.0133 74.8385 12.2853ZM69.6959 13.8907L70.1999 13.4427C70.5608 13.6356 70.931 13.8533 71.3105 14.096C71.6963 14.3325 72.0697 14.5813 72.4305 14.8427C72.7977 15.104 73.1368 15.3622 73.4479 15.6173C73.759 15.8725 74.0172 16.1151 74.2225 16.3453L73.6719 16.8773C73.4728 16.6471 73.2208 16.4013 72.9159 16.14C72.6172 15.8787 72.2874 15.6142 71.9265 15.3467C71.5657 15.0791 71.1954 14.8209 70.8159 14.572C70.4363 14.3231 70.063 14.096 69.6959 13.8907ZM83.3692 14.1147H87.2332V14.7213H83.3692V14.1147ZM82.7905 16.3453H87.6532V16.9707H82.7905V16.3453ZM83.2012 9.09334H86.8039V9.70934H83.2012V9.09334ZM84.9465 12.9013H85.6372V16.7187H84.9465V12.9013ZM86.6079 9.09334H86.7385L86.8692 9.06534L87.3079 9.24267C87.0901 9.9769 86.7759 10.6116 86.3652 11.1467C85.9545 11.6756 85.4754 12.1205 84.9279 12.4813C84.3865 12.8422 83.811 13.1253 83.2012 13.3307C83.1639 13.2436 83.1079 13.144 83.0332 13.032C82.9648 12.92 82.8963 12.8298 82.8279 12.7613C83.2448 12.6431 83.6492 12.4782 84.0412 12.2667C84.4394 12.0489 84.8065 11.7907 85.1425 11.492C85.4785 11.1933 85.7741 10.8542 86.0292 10.4747C86.2843 10.0951 86.4772 9.67512 86.6079 9.21467V9.09334ZM84.1999 9.69067C84.4052 10.1822 84.6759 10.6302 85.0119 11.0347C85.3541 11.4391 85.7554 11.7876 86.2159 12.08C86.6825 12.3662 87.1959 12.5809 87.7559 12.724C87.7123 12.7676 87.6625 12.8267 87.6065 12.9013C87.5505 12.9698 87.4977 13.0382 87.4479 13.1067C87.3981 13.1751 87.3577 13.2436 87.3265 13.312C86.7417 13.1253 86.2097 12.8702 85.7305 12.5467C85.2577 12.2169 84.8439 11.828 84.4892 11.38C84.1345 10.9258 83.8421 10.4187 83.6119 9.85867L84.1999 9.69067ZM79.1225 9.62534H83.0052V10.2507H79.1225V9.62534ZM79.0105 14.964H83.0892V15.5893H79.0105V14.964ZM80.7465 8.61734H81.3812V11.1933H80.7465V8.61734ZM80.8025 11.2213H81.3159V13.9373H81.3812V17.232H80.7465V13.9373H80.8025V11.2213ZM79.8132 12.8267V13.6853H82.3239V12.8267H79.8132ZM79.8132 11.4827V12.3227H82.3239V11.4827H79.8132ZM79.2812 10.96H82.8745V14.208H79.2812V10.96ZM93.3559 10.1667C93.611 10.204 93.9066 10.2351 94.2426 10.26C94.5848 10.2787 94.9363 10.288 95.2972 10.288C95.6643 10.2818 96.0128 10.2693 96.3426 10.2507C96.6786 10.2258 96.9617 10.1947 97.1919 10.1573V10.9133C96.943 10.9382 96.6506 10.96 96.3146 10.9787C95.9848 10.9911 95.6394 10.9973 95.2786 10.9973C94.9239 10.9973 94.5786 10.9911 94.2426 10.9787C93.9066 10.96 93.611 10.9382 93.3559 10.9133V10.1667ZM93.7199 13.9653C93.6763 14.1333 93.6421 14.2858 93.6172 14.4227C93.5923 14.5596 93.5799 14.6933 93.5799 14.824C93.5799 14.9298 93.6017 15.0356 93.6452 15.1413C93.695 15.2409 93.7759 15.3311 93.8879 15.412C94.0061 15.4867 94.1679 15.5489 94.3732 15.5987C94.5786 15.6422 94.8399 15.664 95.1572 15.664C95.5803 15.664 95.9786 15.6453 96.3519 15.608C96.7252 15.5645 97.0986 15.5022 97.4719 15.4213L97.4906 16.2053C97.1981 16.2676 96.8559 16.3173 96.4639 16.3547C96.0781 16.3858 95.6426 16.4013 95.1572 16.4013C94.3732 16.4013 93.7977 16.2769 93.4306 16.028C93.0697 15.7791 92.8892 15.4369 92.8892 15.0013C92.8892 14.8458 92.9017 14.6809 92.9266 14.5067C92.9577 14.3262 92.9981 14.124 93.0479 13.9L93.7199 13.9653ZM91.5732 9.44801C91.5608 9.49779 91.5421 9.56312 91.5172 9.64401C91.4986 9.71867 91.4768 9.79645 91.4519 9.87734C91.4332 9.95201 91.4177 10.0173 91.4052 10.0733C91.3741 10.2476 91.3368 10.4498 91.2932 10.68C91.2497 10.904 91.2061 11.1467 91.1626 11.408C91.1252 11.6631 91.0879 11.9245 91.0506 12.192C91.0194 12.4533 90.9914 12.7085 90.9666 12.9573C90.9479 13.2062 90.9386 13.4365 90.9386 13.648C90.9386 13.8782 90.9448 14.096 90.9572 14.3013C90.9759 14.5067 90.9977 14.7245 91.0226 14.9547C91.0786 14.8116 91.1377 14.6591 91.1999 14.4973C91.2621 14.3356 91.3243 14.1769 91.3866 14.0213C91.455 13.8596 91.5141 13.7165 91.5639 13.592L91.9559 13.8907C91.875 14.1147 91.7879 14.3605 91.6946 14.628C91.6012 14.8956 91.5172 15.1538 91.4426 15.4027C91.3741 15.6453 91.3243 15.8382 91.2932 15.9813C91.2808 16.0498 91.2683 16.1245 91.2559 16.2053C91.2434 16.2862 91.2403 16.3516 91.2466 16.4013C91.2528 16.4511 91.2559 16.504 91.2559 16.56C91.2621 16.6222 91.2683 16.6782 91.2746 16.728L90.6026 16.7747C90.5092 16.4449 90.4283 16.0218 90.3599 15.5053C90.2914 14.9827 90.2572 14.4071 90.2572 13.7787C90.2572 13.4365 90.2728 13.088 90.3039 12.7333C90.335 12.3725 90.3754 12.024 90.4252 11.688C90.475 11.3458 90.5217 11.0347 90.5652 10.7547C90.615 10.4685 90.6523 10.2289 90.6772 10.036C90.6959 9.92401 90.7114 9.81201 90.7239 9.70001C90.7363 9.58179 90.7426 9.4729 90.7426 9.37334L91.5732 9.44801ZM103.389 9.00934C103.377 9.06534 103.367 9.13067 103.361 9.20534C103.355 9.27379 103.349 9.34845 103.343 9.42934C103.336 9.51023 103.33 9.5849 103.324 9.65334C103.318 9.79645 103.308 9.98312 103.296 10.2133C103.29 10.4436 103.283 10.6987 103.277 10.9787C103.271 11.2525 103.265 11.5325 103.259 11.8187C103.252 12.0987 103.249 12.36 103.249 12.6027C103.249 12.8453 103.249 13.1129 103.249 13.4053C103.255 13.6916 103.262 13.9778 103.268 14.264C103.28 14.544 103.287 14.8053 103.287 15.048C103.293 15.2845 103.296 15.4742 103.296 15.6173C103.296 15.9036 103.262 16.1307 103.193 16.2987C103.125 16.4667 103.028 16.5849 102.904 16.6533C102.786 16.728 102.643 16.7653 102.475 16.7653C102.294 16.7653 102.092 16.7218 101.868 16.6347C101.644 16.5538 101.429 16.4418 101.224 16.2987C101.025 16.1556 100.86 15.9907 100.729 15.804C100.599 15.6173 100.533 15.4213 100.533 15.216C100.533 14.936 100.639 14.6622 100.851 14.3947C101.068 14.1271 101.348 13.8782 101.691 13.648C102.039 13.4178 102.406 13.2311 102.792 13.088C103.215 12.92 103.647 12.7956 104.089 12.7147C104.531 12.6276 104.935 12.584 105.303 12.584C105.757 12.584 106.158 12.6618 106.507 12.8173C106.861 12.9729 107.138 13.1907 107.337 13.4707C107.543 13.7445 107.645 14.068 107.645 14.4413C107.645 14.8147 107.567 15.1445 107.412 15.4307C107.263 15.7169 107.039 15.9565 106.74 16.1493C106.447 16.3422 106.087 16.4916 105.657 16.5973C105.452 16.6409 105.247 16.6689 105.041 16.6813C104.842 16.7 104.662 16.7156 104.5 16.728L104.239 15.972C104.413 15.9782 104.593 15.9782 104.78 15.972C104.973 15.9658 105.156 15.944 105.331 15.9067C105.604 15.8569 105.859 15.7729 106.096 15.6547C106.339 15.5302 106.531 15.3685 106.675 15.1693C106.824 14.9702 106.899 14.7307 106.899 14.4507C106.899 14.1831 106.827 13.9591 106.684 13.7787C106.541 13.5982 106.348 13.4613 106.105 13.368C105.863 13.2747 105.592 13.228 105.293 13.228C104.883 13.228 104.481 13.2716 104.089 13.3587C103.697 13.4458 103.299 13.5702 102.895 13.732C102.596 13.844 102.322 13.984 102.073 14.152C101.824 14.3138 101.625 14.4849 101.476 14.6653C101.333 14.8458 101.261 15.0169 101.261 15.1787C101.261 15.2845 101.295 15.3871 101.364 15.4867C101.439 15.58 101.529 15.664 101.635 15.7387C101.74 15.8133 101.852 15.8725 101.971 15.916C102.089 15.9533 102.191 15.972 102.279 15.972C102.384 15.972 102.465 15.9347 102.521 15.86C102.583 15.7853 102.615 15.6702 102.615 15.5147C102.615 15.3342 102.611 15.0853 102.605 14.768C102.599 14.4445 102.593 14.096 102.587 13.7227C102.58 13.3431 102.577 12.9822 102.577 12.64C102.577 12.3725 102.577 12.0862 102.577 11.7813C102.583 11.4765 102.587 11.1809 102.587 10.8947C102.593 10.6085 102.596 10.3565 102.596 10.1387C102.602 9.9209 102.605 9.76534 102.605 9.67201C102.605 9.60979 102.602 9.53823 102.596 9.45734C102.596 9.37023 102.593 9.28623 102.587 9.20534C102.58 9.12445 102.571 9.05912 102.559 9.00934H103.389ZM106.283 10.0453C106.507 10.1636 106.755 10.3067 107.029 10.4747C107.303 10.6365 107.564 10.8013 107.813 10.9693C108.068 11.1373 108.271 11.2836 108.42 11.408L108.037 12.0053C107.925 11.8933 107.782 11.7751 107.608 11.6507C107.434 11.52 107.247 11.3925 107.048 11.268C106.849 11.1373 106.653 11.016 106.46 10.904C106.267 10.7858 106.096 10.6862 105.947 10.6053L106.283 10.0453ZM100.683 10.6893C100.938 10.7205 101.155 10.7422 101.336 10.7547C101.523 10.7609 101.703 10.764 101.877 10.764C102.107 10.764 102.366 10.7516 102.652 10.7267C102.938 10.7018 103.234 10.6707 103.539 10.6333C103.843 10.5898 104.139 10.54 104.425 10.484C104.718 10.4218 104.979 10.3565 105.209 10.288L105.228 11.016C104.985 11.072 104.715 11.128 104.416 11.184C104.117 11.2338 103.812 11.2773 103.501 11.3147C103.196 11.352 102.904 11.3831 102.624 11.408C102.344 11.4329 102.101 11.4453 101.896 11.4453C101.628 11.4453 101.401 11.4422 101.215 11.436C101.034 11.4298 100.863 11.4173 100.701 11.3987L100.683 10.6893ZM113.189 13.1533H116.391V15.8973H113.189V15.3H115.728V13.7507H113.189V13.1533ZM112.881 13.1533H113.535V16.4573H112.881V13.1533ZM111.192 10.3813H113.787V10.8947H111.192V10.3813ZM115.495 10.3813H118.145V10.8947H115.495V10.3813ZM117.828 9.02801H118.537V16.2707C118.537 16.5071 118.506 16.6845 118.444 16.8027C118.382 16.9271 118.273 17.0205 118.117 17.0827C117.962 17.1449 117.744 17.1822 117.464 17.1947C117.19 17.2071 116.848 17.2133 116.437 17.2133C116.431 17.1449 116.412 17.0671 116.381 16.98C116.356 16.8929 116.325 16.8058 116.288 16.7187C116.257 16.6316 116.223 16.5569 116.185 16.4947C116.397 16.5009 116.596 16.504 116.783 16.504C116.975 16.504 117.143 16.504 117.287 16.504C117.436 16.504 117.539 16.504 117.595 16.504C117.682 16.4978 117.741 16.4791 117.772 16.448C117.809 16.4107 117.828 16.3516 117.828 16.2707V9.02801ZM111.248 9.02801H114.235V12.3133H111.248V11.7533H113.581V9.58801H111.248V9.02801ZM118.201 9.02801V9.58801H115.747V11.7627H118.201V12.3227H115.084V9.02801H118.201ZM110.865 9.02801H111.556V17.2227H110.865V9.02801ZM122.541 9.95201C122.529 10.0267 122.516 10.12 122.504 10.232C122.498 10.344 122.488 10.456 122.476 10.568C122.47 10.68 122.467 10.7765 122.467 10.8573C122.46 11.0502 122.457 11.2711 122.457 11.52C122.463 11.7627 122.47 12.0178 122.476 12.2853C122.488 12.5467 122.507 12.808 122.532 13.0693C122.582 13.5858 122.666 14.04 122.784 14.432C122.902 14.8178 123.045 15.1196 123.213 15.3373C123.387 15.5551 123.583 15.664 123.801 15.664C123.919 15.664 124.035 15.6111 124.147 15.5053C124.259 15.3933 124.364 15.2471 124.464 15.0667C124.57 14.88 124.663 14.6747 124.744 14.4507C124.831 14.2205 124.903 13.9902 124.959 13.76L125.547 14.4227C125.36 14.9516 125.17 15.3716 124.977 15.6827C124.791 15.9876 124.598 16.2085 124.399 16.3453C124.206 16.4822 124.003 16.5507 123.792 16.5507C123.499 16.5507 123.216 16.4449 122.943 16.2333C122.669 16.0156 122.432 15.6671 122.233 15.188C122.034 14.7027 121.891 14.0587 121.804 13.256C121.773 12.9822 121.748 12.6867 121.729 12.3693C121.717 12.052 121.707 11.7502 121.701 11.464C121.701 11.1778 121.701 10.9445 121.701 10.764C121.701 10.6582 121.698 10.5213 121.692 10.3533C121.686 10.1853 121.667 10.0453 121.636 9.93334L122.541 9.95201ZM127.404 10.2133C127.572 10.4249 127.731 10.6738 127.88 10.96C128.035 11.24 128.175 11.5418 128.3 11.8653C128.431 12.1827 128.546 12.5125 128.645 12.8547C128.751 13.1969 128.835 13.5391 128.897 13.8813C128.966 14.2173 129.015 14.5409 129.047 14.852L128.3 15.16C128.263 14.7369 128.197 14.3076 128.104 13.872C128.011 13.4302 127.895 13.004 127.759 12.5933C127.622 12.1765 127.463 11.7845 127.283 11.4173C127.102 11.0502 126.9 10.7329 126.676 10.4653L127.404 10.2133ZM133.228 11.6787H137.941V12.304H133.228V11.6787ZM133.06 16.2053H138.063V16.8307H133.06V16.2053ZM132.743 13.48H138.455V17.2227H137.745V14.1147H133.433V17.2227H132.743V13.48ZM135.561 9.33601C135.306 9.71556 134.973 10.1076 134.563 10.512C134.158 10.9165 133.707 11.3053 133.209 11.6787C132.718 12.052 132.204 12.3818 131.669 12.668C131.638 12.6182 131.598 12.5591 131.548 12.4907C131.498 12.4222 131.445 12.3538 131.389 12.2853C131.333 12.2169 131.28 12.1609 131.231 12.1173C131.778 11.8373 132.304 11.5045 132.808 11.1187C133.318 10.7329 133.775 10.3253 134.18 9.89601C134.591 9.46667 134.917 9.04979 135.16 8.64534H135.879C136.127 8.99379 136.411 9.3329 136.728 9.66267C137.051 9.99245 137.394 10.3036 137.755 10.596C138.122 10.8885 138.495 11.156 138.875 11.3987C139.26 11.6351 139.637 11.8342 140.004 11.996C139.923 12.0831 139.842 12.1827 139.761 12.2947C139.68 12.4067 139.606 12.5156 139.537 12.6213C139.17 12.4222 138.8 12.1982 138.427 11.9493C138.053 11.7005 137.689 11.4329 137.335 11.1467C136.98 10.8542 136.65 10.5556 136.345 10.2507C136.04 9.93956 135.779 9.63467 135.561 9.33601ZM146.295 15.7947C146.693 15.7387 147.069 15.6485 147.424 15.524C147.785 15.3996 148.105 15.2347 148.385 15.0293C148.665 14.824 148.886 14.572 149.048 14.2733C149.21 13.9747 149.287 13.6262 149.281 13.228C149.281 13.0476 149.244 12.8609 149.169 12.668C149.101 12.4751 148.992 12.2947 148.843 12.1267C148.699 11.9587 148.513 11.8249 148.283 11.7253C148.052 11.6196 147.785 11.5667 147.48 11.5667C146.883 11.5667 146.316 11.716 145.781 12.0147C145.246 12.3071 144.751 12.6898 144.297 13.1627V12.3413C144.863 11.8062 145.43 11.4298 145.996 11.212C146.568 10.9942 147.1 10.8853 147.592 10.8853C148.021 10.8853 148.419 10.9818 148.787 11.1747C149.16 11.3613 149.462 11.632 149.692 11.9867C149.922 12.3413 150.037 12.7613 150.037 13.2467C150.037 13.7133 149.956 14.1302 149.795 14.4973C149.633 14.8582 149.399 15.1693 149.095 15.4307C148.796 15.692 148.438 15.9129 148.021 16.0933C147.611 16.2676 147.15 16.4013 146.64 16.4947L146.295 15.7947ZM144.195 11.296C144.12 11.3085 144.005 11.324 143.849 11.3427C143.7 11.3613 143.526 11.3862 143.327 11.4173C143.134 11.4422 142.938 11.4671 142.739 11.492C142.539 11.5169 142.353 11.5449 142.179 11.576L142.104 10.8013C142.203 10.8076 142.3 10.8107 142.393 10.8107C142.493 10.8045 142.599 10.7982 142.711 10.792C142.841 10.7858 143 10.7733 143.187 10.7547C143.379 10.7298 143.579 10.7049 143.784 10.68C143.989 10.6489 144.182 10.6178 144.363 10.5867C144.549 10.5493 144.695 10.512 144.801 10.4747L145.081 10.8013C145.025 10.876 144.963 10.9693 144.895 11.0813C144.826 11.1871 144.758 11.296 144.689 11.408C144.621 11.52 144.562 11.6196 144.512 11.7067L144.223 12.976C144.117 13.144 143.986 13.3431 143.831 13.5733C143.675 13.8036 143.51 14.0462 143.336 14.3013C143.168 14.5502 142.997 14.7991 142.823 15.048C142.648 15.2907 142.49 15.5147 142.347 15.72L141.88 15.076C141.992 14.9329 142.129 14.7556 142.291 14.544C142.452 14.3325 142.62 14.1085 142.795 13.872C142.975 13.6293 143.149 13.3898 143.317 13.1533C143.485 12.9169 143.635 12.6991 143.765 12.5C143.902 12.3009 144.005 12.1422 144.073 12.024L144.111 11.548L144.195 11.296ZM144.101 9.74667C144.101 9.6409 144.098 9.5289 144.092 9.41067C144.092 9.29245 144.083 9.17423 144.064 9.05601L144.941 9.08401C144.916 9.20845 144.885 9.40445 144.848 9.67201C144.817 9.93334 144.783 10.2445 144.745 10.6053C144.708 10.9662 144.671 11.3458 144.633 11.744C144.602 12.1422 144.577 12.5373 144.559 12.9293C144.54 13.3151 144.531 13.6729 144.531 14.0027C144.531 14.2827 144.531 14.544 144.531 14.7867C144.531 15.0231 144.534 15.2596 144.54 15.496C144.546 15.7262 144.555 15.9782 144.568 16.252C144.574 16.3329 144.58 16.4262 144.587 16.532C144.593 16.6378 144.602 16.7342 144.615 16.8213H143.803C143.815 16.7591 143.821 16.6689 143.821 16.5507C143.827 16.4387 143.831 16.3453 143.831 16.2707C143.837 15.972 143.84 15.7076 143.84 15.4773C143.84 15.2471 143.84 15.0107 143.84 14.768C143.846 14.5191 143.852 14.2236 143.859 13.8813C143.859 13.7445 143.865 13.5578 143.877 13.3213C143.89 13.0787 143.905 12.8142 143.924 12.528C143.943 12.2356 143.961 11.94 143.98 11.6413C143.999 11.3427 144.017 11.0627 144.036 10.8013C144.055 10.5338 144.07 10.3067 144.083 10.12C144.095 9.93334 144.101 9.8089 144.101 9.74667ZM158.727 9.27067C158.72 9.32045 158.714 9.38579 158.708 9.46667C158.702 9.54756 158.695 9.63156 158.689 9.71867C158.689 9.79956 158.686 9.87423 158.68 9.94267C158.68 10.1356 158.677 10.3347 158.671 10.54C158.671 10.7453 158.667 10.9445 158.661 11.1373C158.661 11.324 158.658 11.4982 158.652 11.66C158.646 11.8965 158.636 12.1578 158.624 12.444C158.618 12.724 158.605 12.9916 158.587 13.2467C158.574 13.5018 158.549 13.7102 158.512 13.872C158.468 14.0773 158.391 14.2173 158.279 14.292C158.173 14.3667 158.011 14.404 157.793 14.404C157.681 14.404 157.544 14.3978 157.383 14.3853C157.221 14.3667 157.065 14.348 156.916 14.3293C156.767 14.3107 156.648 14.292 156.561 14.2733L156.58 13.6293C156.742 13.6667 156.91 13.6978 157.084 13.7227C157.264 13.7413 157.407 13.7507 157.513 13.7507C157.631 13.7507 157.715 13.7351 157.765 13.704C157.821 13.6729 157.855 13.6045 157.868 13.4987C157.893 13.3742 157.911 13.2125 157.924 13.0133C157.936 12.808 157.946 12.5871 157.952 12.3507C157.964 12.108 157.974 11.8778 157.98 11.66C157.98 11.4858 157.98 11.3022 157.98 11.1093C157.98 10.9102 157.98 10.7142 157.98 10.5213C157.98 10.3222 157.98 10.1387 157.98 9.97067C157.98 9.90223 157.977 9.82445 157.971 9.73734C157.971 9.65023 157.967 9.56623 157.961 9.48534C157.955 9.39823 157.946 9.32667 157.933 9.27067H158.727ZM155.031 9.56001C155.018 9.67201 155.009 9.79023 155.003 9.91467C154.996 10.0391 154.993 10.1729 154.993 10.316C154.993 10.5151 154.99 10.7702 154.984 11.0813C154.984 11.3862 154.981 11.7129 154.975 12.0613C154.975 12.4036 154.975 12.7396 154.975 13.0693C154.975 13.3991 154.975 13.6947 154.975 13.956C154.975 14.2173 154.978 14.4133 154.984 14.544C154.996 14.7929 155.012 15.0045 155.031 15.1787C155.055 15.3529 155.118 15.4929 155.217 15.5987C155.317 15.7045 155.479 15.7822 155.703 15.832C155.927 15.8818 156.241 15.9067 156.645 15.9067C156.981 15.9067 157.323 15.8973 157.672 15.8787C158.02 15.8538 158.347 15.8258 158.652 15.7947C158.963 15.7573 159.218 15.72 159.417 15.6827L159.389 16.476C159.184 16.4947 158.929 16.5165 158.624 16.5413C158.319 16.5662 157.999 16.5849 157.663 16.5973C157.327 16.616 157 16.6253 156.683 16.6253C156.141 16.6253 155.712 16.5911 155.395 16.5227C155.077 16.4542 154.841 16.3453 154.685 16.196C154.53 16.0405 154.424 15.8351 154.368 15.58C154.318 15.3249 154.287 15.0138 154.275 14.6467C154.275 14.516 154.271 14.3325 154.265 14.096C154.265 13.8533 154.265 13.5827 154.265 13.284C154.265 12.9791 154.265 12.6711 154.265 12.36C154.265 12.0489 154.265 11.7533 154.265 11.4733C154.271 11.1933 154.275 10.9538 154.275 10.7547C154.275 10.5556 154.275 10.4218 154.275 10.3533C154.275 10.2102 154.268 10.0796 154.256 9.96134C154.25 9.8369 154.237 9.70312 154.219 9.56001H155.031ZM152.24 11.8C152.389 11.8 152.545 11.7938 152.707 11.7813C152.875 11.7689 153.043 11.7565 153.211 11.744C153.416 11.7253 153.708 11.6973 154.088 11.66C154.467 11.6227 154.897 11.5822 155.376 11.5387C155.861 11.4951 156.362 11.4516 156.879 11.408C157.395 11.3582 157.896 11.3147 158.381 11.2773C158.873 11.2338 159.311 11.2027 159.697 11.184C159.815 11.1716 159.937 11.1622 160.061 11.156C160.192 11.1498 160.313 11.1436 160.425 11.1373V11.8653C160.375 11.8591 160.307 11.8591 160.22 11.8653C160.139 11.8653 160.049 11.8653 159.949 11.8653C159.856 11.8653 159.769 11.8653 159.688 11.8653C159.439 11.8716 159.137 11.8871 158.783 11.912C158.428 11.9307 158.042 11.9587 157.625 11.996C157.215 12.0271 156.795 12.0645 156.365 12.108C155.936 12.1453 155.522 12.1858 155.124 12.2293C154.726 12.2729 154.365 12.3133 154.041 12.3507C153.724 12.3818 153.466 12.4098 153.267 12.4347C153.173 12.4471 153.067 12.4627 152.949 12.4813C152.837 12.4938 152.725 12.5093 152.613 12.528C152.501 12.5405 152.405 12.5529 152.324 12.5653L152.24 11.8ZM168.844 9.57867C168.744 9.65334 168.632 9.74667 168.508 9.85867C168.383 9.96445 168.281 10.0485 168.2 10.1107C168.038 10.2538 167.842 10.4218 167.612 10.6147C167.382 10.8013 167.139 11.0005 166.884 11.212C166.629 11.4173 166.383 11.6165 166.147 11.8093C165.91 11.996 165.705 12.164 165.531 12.3133C165.344 12.4751 165.219 12.6089 165.157 12.7147C165.095 12.8142 165.095 12.9169 165.157 13.0227C165.226 13.1285 165.359 13.2685 165.559 13.4427C165.733 13.5796 165.932 13.7413 166.156 13.928C166.38 14.1085 166.616 14.3045 166.865 14.516C167.12 14.7276 167.379 14.9453 167.64 15.1693C167.901 15.3933 168.153 15.6142 168.396 15.832C168.639 16.0498 168.856 16.2582 169.049 16.4573L168.387 17.0733C168.194 16.8493 167.979 16.6222 167.743 16.392C167.581 16.224 167.379 16.028 167.136 15.804C166.893 15.58 166.632 15.3467 166.352 15.104C166.078 14.8613 165.804 14.628 165.531 14.404C165.263 14.1738 165.02 13.9685 164.803 13.788C164.504 13.5391 164.314 13.3213 164.233 13.1347C164.152 12.9418 164.168 12.752 164.28 12.5653C164.392 12.3787 164.588 12.1702 164.868 11.94C165.042 11.7907 165.251 11.6165 165.493 11.4173C165.742 11.2182 166 11.0098 166.268 10.792C166.535 10.568 166.787 10.3533 167.024 10.148C167.267 9.93645 167.466 9.74979 167.621 9.58801C167.715 9.49467 167.811 9.3889 167.911 9.27067C168.016 9.15245 168.097 9.04979 168.153 8.96267L168.844 9.57867ZM176.581 9.26134C176.55 9.3609 176.519 9.48534 176.488 9.63467C176.457 9.78401 176.432 9.90534 176.413 9.99867C176.37 10.2227 176.317 10.484 176.255 10.7827C176.199 11.0751 176.133 11.3831 176.059 11.7067C175.99 12.0302 175.912 12.3476 175.825 12.6587C175.744 12.9885 175.645 13.3493 175.527 13.7413C175.408 14.1271 175.284 14.516 175.153 14.908C175.023 15.3 174.889 15.6702 174.752 16.0187C174.615 16.3671 174.487 16.672 174.369 16.9333L173.548 16.6533C173.691 16.4107 173.834 16.1213 173.977 15.7853C174.127 15.4493 174.27 15.0885 174.407 14.7027C174.55 14.3169 174.68 13.9342 174.799 13.5547C174.923 13.1689 175.029 12.8111 175.116 12.4813C175.172 12.2636 175.228 12.0333 175.284 11.7907C175.34 11.548 175.393 11.3116 175.443 11.0813C175.499 10.8449 175.542 10.6302 175.573 10.4373C175.611 10.2382 175.639 10.0765 175.657 9.95201C175.676 9.82134 175.688 9.68445 175.695 9.54134C175.701 9.39823 175.698 9.28001 175.685 9.18667L176.581 9.26134ZM174.509 10.8107C174.858 10.8107 175.231 10.7951 175.629 10.764C176.034 10.7267 176.444 10.6738 176.861 10.6053C177.278 10.5369 177.679 10.456 178.065 10.3627V11.0907C177.679 11.1778 177.275 11.2525 176.852 11.3147C176.429 11.3769 176.012 11.4267 175.601 11.464C175.197 11.4951 174.83 11.5107 174.5 11.5107C174.295 11.5107 174.105 11.5076 173.931 11.5013C173.756 11.4889 173.585 11.4796 173.417 11.4733L173.389 10.7453C173.613 10.7702 173.812 10.7889 173.987 10.8013C174.167 10.8076 174.341 10.8107 174.509 10.8107ZM177.459 12.0987C177.707 12.0738 177.978 12.0551 178.271 12.0427C178.569 12.024 178.868 12.0147 179.167 12.0147C179.44 12.0147 179.714 12.0209 179.988 12.0333C180.268 12.0458 180.532 12.0676 180.781 12.0987L180.763 12.808C180.526 12.7769 180.274 12.752 180.007 12.7333C179.739 12.7085 179.468 12.696 179.195 12.696C178.896 12.696 178.603 12.7053 178.317 12.724C178.031 12.7365 177.745 12.7613 177.459 12.7987V12.0987ZM177.655 14.3667C177.617 14.5222 177.586 14.6716 177.561 14.8147C177.536 14.9516 177.524 15.0822 177.524 15.2067C177.524 15.3187 177.543 15.4276 177.58 15.5333C177.623 15.6329 177.701 15.7231 177.813 15.804C177.925 15.8849 178.084 15.9502 178.289 16C178.501 16.0498 178.771 16.0747 179.101 16.0747C179.4 16.0747 179.705 16.0591 180.016 16.028C180.333 15.9969 180.635 15.9502 180.921 15.888L180.893 16.644C180.644 16.6813 180.367 16.7125 180.063 16.7373C179.758 16.7685 179.434 16.784 179.092 16.784C178.358 16.784 177.795 16.6689 177.403 16.4387C177.011 16.2085 176.815 15.8631 176.815 15.4027C176.815 15.2222 176.827 15.0449 176.852 14.8707C176.877 14.6902 176.911 14.5005 176.955 14.3013L177.655 14.3667ZM179.773 9.54134C179.854 9.64712 179.941 9.77779 180.035 9.93334C180.128 10.0889 180.218 10.2445 180.305 10.4C180.399 10.5556 180.476 10.6987 180.539 10.8293L180.035 11.0533C179.979 10.9227 179.904 10.7796 179.811 10.624C179.723 10.4685 179.633 10.3129 179.54 10.1573C179.453 10.0018 179.366 9.86801 179.279 9.75601L179.773 9.54134ZM180.8 9.15867C180.887 9.2769 180.98 9.41379 181.08 9.56934C181.179 9.7249 181.273 9.88045 181.36 10.036C181.453 10.1916 181.531 10.3285 181.593 10.4467L181.089 10.6707C180.99 10.4591 180.868 10.2351 180.725 9.99867C180.582 9.75601 180.445 9.54756 180.315 9.37334L180.8 9.15867ZM188.071 9.84934C188.039 9.74979 188.002 9.63467 187.959 9.50401C187.921 9.37334 187.881 9.24579 187.837 9.12134L188.631 9.01867C188.662 9.19912 188.705 9.40445 188.761 9.63467C188.817 9.85867 188.883 10.0889 188.957 10.3253C189.032 10.5556 189.107 10.7702 189.181 10.9693C189.324 11.3738 189.505 11.7782 189.723 12.1827C189.94 12.5809 190.146 12.9169 190.339 13.1907C190.407 13.2778 190.475 13.3618 190.544 13.4427C190.612 13.5236 190.681 13.6045 190.749 13.6853L190.367 14.208C190.255 14.1831 190.105 14.1582 189.919 14.1333C189.738 14.1085 189.539 14.0867 189.321 14.068C189.11 14.0431 188.898 14.0213 188.687 14.0027C188.475 13.984 188.285 13.9685 188.117 13.956L188.173 13.3307C188.347 13.3431 188.531 13.3587 188.724 13.3773C188.923 13.396 189.11 13.4147 189.284 13.4333C189.464 13.4458 189.611 13.4582 189.723 13.4707C189.592 13.2716 189.452 13.0445 189.303 12.7893C189.153 12.528 189.007 12.2542 188.864 11.968C188.727 11.6756 188.606 11.3893 188.5 11.1093C188.4 10.8356 188.316 10.5929 188.248 10.3813C188.179 10.1698 188.12 9.99245 188.071 9.84934ZM184.655 10.5773C185.177 10.6396 185.681 10.6831 186.167 10.708C186.658 10.7329 187.122 10.7391 187.557 10.7267C187.999 10.7142 188.397 10.6893 188.752 10.652C189.001 10.6209 189.262 10.5836 189.536 10.54C189.816 10.4965 190.093 10.4405 190.367 10.372C190.64 10.3036 190.899 10.232 191.141 10.1573L191.225 10.8853C191.007 10.9538 190.768 11.0129 190.507 11.0627C190.245 11.1125 189.984 11.1591 189.723 11.2027C189.461 11.2462 189.215 11.2805 188.985 11.3053C188.394 11.3738 187.731 11.4111 186.997 11.4173C186.269 11.4236 185.495 11.3925 184.673 11.324L184.655 10.5773ZM186.092 13.5547C185.955 13.7787 185.846 13.9965 185.765 14.208C185.691 14.4133 185.653 14.628 185.653 14.852C185.653 15.2938 185.846 15.6173 186.232 15.8227C186.618 16.028 187.156 16.1338 187.847 16.14C188.326 16.1462 188.764 16.1276 189.163 16.084C189.567 16.0405 189.931 15.9813 190.255 15.9067L190.217 16.6533C189.931 16.7031 189.589 16.7498 189.191 16.7933C188.792 16.8369 188.332 16.8587 187.809 16.8587C187.218 16.8525 186.705 16.7778 186.269 16.6347C185.84 16.4916 185.507 16.28 185.271 16C185.034 15.7138 184.916 15.3591 184.916 14.936C184.916 14.6809 184.956 14.4289 185.037 14.18C185.124 13.9249 185.233 13.6605 185.364 13.3867L186.092 13.5547ZM195.715 9.95201C195.702 10.0267 195.69 10.12 195.677 10.232C195.671 10.344 195.662 10.456 195.649 10.568C195.643 10.68 195.64 10.7765 195.64 10.8573C195.634 11.0502 195.631 11.2711 195.631 11.52C195.637 11.7627 195.643 12.0178 195.649 12.2853C195.662 12.5467 195.68 12.808 195.705 13.0693C195.755 13.5858 195.839 14.04 195.957 14.432C196.075 14.8178 196.219 15.1196 196.387 15.3373C196.561 15.5551 196.757 15.664 196.975 15.664C197.093 15.664 197.208 15.6111 197.32 15.5053C197.432 15.3933 197.538 15.2471 197.637 15.0667C197.743 14.88 197.836 14.6747 197.917 14.4507C198.004 14.2205 198.076 13.9902 198.132 13.76L198.72 14.4227C198.533 14.9516 198.343 15.3716 198.151 15.6827C197.964 15.9876 197.771 16.2085 197.572 16.3453C197.379 16.4822 197.177 16.5507 196.965 16.5507C196.673 16.5507 196.39 16.4449 196.116 16.2333C195.842 16.0156 195.606 15.6671 195.407 15.188C195.207 14.7027 195.064 14.0587 194.977 13.256C194.946 12.9822 194.921 12.6867 194.903 12.3693C194.89 12.052 194.881 11.7502 194.875 11.464C194.875 11.1778 194.875 10.9445 194.875 10.764C194.875 10.6582 194.871 10.5213 194.865 10.3533C194.859 10.1853 194.84 10.0453 194.809 9.93334L195.715 9.95201ZM200.577 10.2133C200.745 10.4249 200.904 10.6738 201.053 10.96C201.209 11.24 201.349 11.5418 201.473 11.8653C201.604 12.1827 201.719 12.5125 201.819 12.8547C201.924 13.1969 202.008 13.5391 202.071 13.8813C202.139 14.2173 202.189 14.5409 202.22 14.852L201.473 15.16C201.436 14.7369 201.371 14.3076 201.277 13.872C201.184 13.4302 201.069 13.004 200.932 12.5933C200.795 12.1765 200.636 11.7845 200.456 11.4173C200.275 11.0502 200.073 10.7329 199.849 10.4653L200.577 10.2133Z" fill="white"/>
<path d="M21.2476 41.4V27.0864H16.4316V24.8912H28.7292V27.0864H23.8908V41.4H21.2476ZM34.2917 41.4V24.8912H44.0357V27.0864H36.8901V31.6784H42.9381V33.8736H36.8901V39.1824H44.2821V41.4H34.2917ZM50.411 41.4V24.8912H53.0094V39.1824H59.9982V41.4H50.411ZM77.5425 41.7136C76.4374 41.7136 75.4817 41.3925 74.6753 40.7504C73.8838 40.0933 73.2715 39.1451 72.8385 37.9056C72.4054 36.6512 72.1889 35.1205 72.1889 33.3136C72.1889 31.5067 72.4054 29.9909 72.8385 28.7664C73.2715 27.5419 73.8838 26.616 74.6753 25.9888C75.4817 25.3616 76.4374 25.048 77.5425 25.048C78.6326 25.048 79.5734 25.3616 80.3649 25.9888C81.1563 26.616 81.7686 27.5419 82.2017 28.7664C82.6347 29.9909 82.8513 31.5067 82.8513 33.3136C82.8513 35.1205 82.6347 36.6512 82.2017 37.9056C81.7686 39.1451 81.1563 40.0933 80.3649 40.7504C79.5734 41.3925 78.6326 41.7136 77.5425 41.7136ZM77.5425 39.6528C78.095 39.6528 78.5878 39.4437 79.0209 39.0256C79.4539 38.6075 79.7899 37.9355 80.0289 37.0096C80.2678 36.0837 80.3873 34.8517 80.3873 33.3136C80.3873 31.7755 80.2678 30.5584 80.0289 29.6624C79.7899 28.7515 79.4539 28.0944 79.0209 27.6912C78.5878 27.288 78.095 27.0864 77.5425 27.0864C76.9899 27.0864 76.4971 27.288 76.0641 27.6912C75.631 28.0944 75.2875 28.7515 75.0337 29.6624C74.7947 30.5584 74.6753 31.7755 74.6753 33.3136C74.6753 34.8517 74.7947 36.0837 75.0337 37.0096C75.2875 37.9355 75.631 38.6075 76.0641 39.0256C76.4971 39.4437 76.9899 39.6528 77.5425 39.6528ZM92.6023 41.7136C91.7511 41.7136 90.9895 41.6091 90.3175 41.4C89.6455 41.1909 89.0556 40.9147 88.5479 40.5712C88.0401 40.2277 87.5921 39.8693 87.2039 39.496L88.4359 37.816C88.7495 38.1296 89.0929 38.4208 89.4663 38.6896C89.8396 38.9435 90.2577 39.1525 90.7207 39.3168C91.1985 39.4811 91.7287 39.5632 92.3111 39.5632C92.9233 39.5632 93.4759 39.4363 93.9687 39.1824C94.4615 38.9136 94.8497 38.5328 95.1335 38.04C95.4172 37.5472 95.5591 36.9648 95.5591 36.2928C95.5591 35.2773 95.2679 34.4859 94.6855 33.9184C94.118 33.3509 93.3639 33.0672 92.4231 33.0672C91.9004 33.0672 91.4524 33.1493 91.0791 33.3136C90.7057 33.4629 90.2801 33.6944 89.8023 34.008L88.5255 33.2016L89.0183 25.3616H97.3735V27.5568H91.2583L90.8775 31.768C91.2359 31.5888 91.5943 31.4544 91.9527 31.3648C92.3111 31.2603 92.7068 31.208 93.1399 31.208C94.0657 31.208 94.9095 31.3872 95.6711 31.7456C96.4327 32.0891 97.0375 32.6341 97.4855 33.3808C97.9335 34.1125 98.1575 35.0533 98.1575 36.2032C98.1575 37.368 97.8961 38.3611 97.3735 39.1824C96.8508 40.0037 96.1639 40.6309 95.3127 41.064C94.4764 41.4971 93.5729 41.7136 92.6023 41.7136ZM108.468 41.7136C107.438 41.7136 106.52 41.5269 105.713 41.1536C104.907 40.7653 104.265 40.2427 103.787 39.5856C103.324 38.9136 103.092 38.152 103.092 37.3008C103.092 36.6139 103.234 36.0091 103.518 35.4864C103.802 34.9488 104.168 34.4784 104.616 34.0752C105.064 33.672 105.534 33.3435 106.027 33.0896V33C105.43 32.5669 104.914 32.0443 104.481 31.432C104.048 30.8197 103.832 30.0955 103.832 29.2592C103.832 28.408 104.033 27.6688 104.436 27.0416C104.855 26.3995 105.415 25.9067 106.116 25.5632C106.833 25.2197 107.647 25.048 108.558 25.048C109.514 25.048 110.335 25.2347 111.022 25.608C111.709 25.9664 112.239 26.4667 112.612 27.1088C113.001 27.7509 113.195 28.4976 113.195 29.3488C113.195 29.9013 113.083 30.4165 112.859 30.8944C112.635 31.3723 112.359 31.7979 112.03 32.1712C111.702 32.5445 111.366 32.8581 111.022 33.112V33.2016C111.515 33.4853 111.97 33.8139 112.388 34.1872C112.822 34.5605 113.165 35.0085 113.419 35.5312C113.673 36.0389 113.8 36.6512 113.8 37.368C113.8 38.1744 113.576 38.9061 113.128 39.5632C112.695 40.2203 112.075 40.7429 111.268 41.1312C110.477 41.5195 109.544 41.7136 108.468 41.7136ZM109.566 32.4624C110.044 32.0144 110.402 31.544 110.641 31.0512C110.895 30.5584 111.022 30.0432 111.022 29.5056C111.022 29.0128 110.925 28.5723 110.731 28.184C110.537 27.7957 110.246 27.4896 109.857 27.2656C109.484 27.0416 109.028 26.9296 108.491 26.9296C107.819 26.9296 107.259 27.1387 106.811 27.5568C106.363 27.96 106.139 28.5275 106.139 29.2592C106.139 29.8416 106.296 30.3269 106.609 30.7152C106.938 31.0885 107.356 31.4171 107.864 31.7008C108.386 31.9696 108.954 32.2235 109.566 32.4624ZM108.536 39.832C109.088 39.832 109.574 39.7275 109.992 39.5184C110.425 39.3093 110.761 39.0181 111 38.6448C111.239 38.2565 111.358 37.8011 111.358 37.2784C111.358 36.8155 111.254 36.4197 111.044 36.0912C110.835 35.7477 110.544 35.4491 110.171 35.1952C109.798 34.9413 109.364 34.7099 108.872 34.5008C108.394 34.2768 107.871 34.0603 107.304 33.8512C106.736 34.2245 106.273 34.68 105.915 35.2176C105.556 35.7552 105.377 36.36 105.377 37.032C105.377 37.5845 105.512 38.0699 105.78 38.488C106.064 38.9061 106.445 39.2347 106.923 39.4736C107.401 39.7125 107.938 39.832 108.536 39.832ZM124.402 41.7136C123.61 41.7136 122.864 41.5568 122.162 41.2432C121.475 40.9147 120.87 40.4293 120.347 39.7872C119.84 39.1451 119.437 38.3387 119.138 37.368C118.839 36.3824 118.69 35.2251 118.69 33.896C118.69 32.3131 118.854 30.9691 119.183 29.864C119.526 28.744 119.989 27.8256 120.571 27.1088C121.154 26.392 121.818 25.8693 122.565 25.5408C123.312 25.2123 124.096 25.048 124.917 25.048C125.843 25.048 126.642 25.2197 127.314 25.5632C128.001 25.9067 128.576 26.3248 129.039 26.8176L127.627 28.3856C127.329 28.0272 126.948 27.736 126.485 27.512C126.022 27.288 125.537 27.176 125.029 27.176C124.312 27.176 123.655 27.3851 123.058 27.8032C122.461 28.2213 121.983 28.9232 121.624 29.9088C121.266 30.8795 121.087 32.2085 121.087 33.896C121.087 35.2251 121.221 36.3227 121.49 37.1888C121.759 38.04 122.139 38.6747 122.632 39.0928C123.125 39.5109 123.7 39.72 124.357 39.72C124.835 39.72 125.268 39.5931 125.656 39.3392C126.045 39.0704 126.351 38.6971 126.575 38.2192C126.814 37.7264 126.933 37.144 126.933 36.472C126.933 35.8149 126.821 35.2624 126.597 34.8144C126.388 34.3515 126.082 34.0005 125.679 33.7616C125.275 33.5227 124.783 33.4032 124.2 33.4032C123.722 33.4032 123.2 33.56 122.632 33.8736C122.08 34.1872 121.557 34.7323 121.064 35.5088L120.952 33.6272C121.281 33.1941 121.654 32.8208 122.072 32.5072C122.49 32.1936 122.923 31.9547 123.371 31.7904C123.834 31.6112 124.267 31.5216 124.671 31.5216C125.597 31.5216 126.41 31.7083 127.112 32.0816C127.814 32.44 128.359 32.9851 128.747 33.7168C129.136 34.4485 129.33 35.3669 129.33 36.472C129.33 37.5323 129.098 38.4507 128.635 39.2272C128.187 40.0037 127.59 40.616 126.843 41.064C126.112 41.4971 125.298 41.7136 124.402 41.7136ZM134.041 36.024V34.12H139.954V36.024H134.041ZM148.006 41.4C148.08 39.9515 148.207 38.6149 148.386 37.3904C148.58 36.1659 148.849 35.0085 149.193 33.9184C149.551 32.8283 149.999 31.768 150.537 30.7376C151.089 29.6923 151.754 28.632 152.53 27.5568H144.802V25.3616H155.398V26.952C154.457 28.1317 153.688 29.2592 153.09 30.3344C152.508 31.3947 152.045 32.4848 151.702 33.6048C151.373 34.7099 151.127 35.8971 150.962 37.1664C150.813 38.4208 150.708 39.832 150.649 41.4H148.006ZM165.149 41.7136C164.282 41.7136 163.513 41.6091 162.841 41.4C162.184 41.1909 161.602 40.9147 161.094 40.5712C160.586 40.2128 160.146 39.832 159.773 39.4288L161.027 37.7712C161.52 38.2491 162.08 38.6672 162.707 39.0256C163.334 39.384 164.073 39.5632 164.925 39.5632C165.552 39.5632 166.097 39.4587 166.56 39.2496C167.023 39.0405 167.381 38.7419 167.635 38.3536C167.904 37.9653 168.038 37.5024 168.038 36.9648C168.038 36.3675 167.889 35.8597 167.59 35.4416C167.306 35.0085 166.806 34.6725 166.089 34.4336C165.387 34.1947 164.417 34.0752 163.177 34.0752V32.1488C164.267 32.1488 165.119 32.0293 165.731 31.7904C166.358 31.5365 166.806 31.208 167.075 30.8048C167.359 30.3867 167.501 29.9237 167.501 29.416C167.501 28.6992 167.277 28.1392 166.829 27.736C166.381 27.3179 165.761 27.1088 164.969 27.1088C164.342 27.1088 163.752 27.2581 163.2 27.5568C162.662 27.8405 162.154 28.2139 161.677 28.6768L160.333 27.064C160.99 26.4816 161.706 26.0037 162.483 25.6304C163.259 25.2421 164.118 25.048 165.059 25.048C166.045 25.048 166.918 25.2123 167.68 25.5408C168.441 25.8693 169.039 26.3472 169.472 26.9744C169.905 27.5867 170.121 28.3333 170.121 29.2144C170.121 30.1403 169.86 30.9168 169.337 31.544C168.83 32.1563 168.143 32.6267 167.277 32.9552V33.0672C167.904 33.2165 168.471 33.4704 168.979 33.8288C169.502 34.1872 169.912 34.6427 170.211 35.1952C170.51 35.7328 170.659 36.3675 170.659 37.0992C170.659 38.0699 170.405 38.8987 169.897 39.5856C169.405 40.2725 168.74 40.8027 167.904 41.176C167.067 41.5344 166.149 41.7136 165.149 41.7136ZM175.661 36.024V34.12H181.575V36.024H175.661ZM192.896 41.4V31.096C192.896 30.648 192.911 30.1104 192.941 29.4832C192.971 28.8411 192.993 28.3035 193.008 27.8704H192.919C192.709 28.2587 192.493 28.6544 192.269 29.0576C192.06 29.4459 191.836 29.8491 191.597 30.2672L188.371 35.1504H197.399V37.1664H185.751V35.4192L192.314 25.3616H195.315V41.4H192.896ZM206.142 41.7136C205.201 41.7136 204.387 41.5419 203.7 41.1984C203.028 40.84 202.46 40.4219 201.998 39.944L203.409 38.3312C203.707 38.7045 204.088 39.0032 204.551 39.2272C205.029 39.4512 205.514 39.5632 206.007 39.5632C206.724 39.5632 207.381 39.3541 207.978 38.936C208.576 38.5179 209.054 37.816 209.412 36.8304C209.77 35.8448 209.95 34.5157 209.95 32.8432C209.95 31.5141 209.815 30.424 209.546 29.5728C209.278 28.7067 208.897 28.072 208.404 27.6688C207.926 27.2507 207.351 27.0416 206.679 27.0416C206.201 27.0416 205.768 27.1685 205.38 27.4224C204.992 27.6763 204.686 28.0421 204.462 28.52C204.238 28.9979 204.126 29.5803 204.126 30.2672C204.126 30.9243 204.223 31.4843 204.417 31.9472C204.626 32.4101 204.932 32.7611 205.335 33C205.753 33.2389 206.254 33.3584 206.836 33.3584C207.314 33.3584 207.829 33.1941 208.382 32.8656C208.949 32.5371 209.479 31.992 209.972 31.2304L210.084 33.1344C209.77 33.5675 209.397 33.9408 208.964 34.2544C208.546 34.568 208.113 34.8069 207.665 34.9712C207.217 35.1355 206.784 35.2176 206.366 35.2176C205.44 35.2176 204.626 35.0384 203.924 34.68C203.237 34.3067 202.692 33.7541 202.289 33.0224C201.9 32.2907 201.706 31.3723 201.706 30.2672C201.706 29.2069 201.93 28.2885 202.378 27.512C202.841 26.7355 203.446 26.1307 204.193 25.6976C204.939 25.2645 205.753 25.048 206.634 25.048C207.426 25.048 208.165 25.2048 208.852 25.5184C209.554 25.832 210.159 26.3173 210.666 26.9744C211.189 27.6165 211.6 28.4229 211.898 29.3936C212.197 30.3643 212.346 31.5141 212.346 32.8432C212.346 34.4112 212.175 35.7627 211.831 36.8976C211.503 38.0176 211.04 38.936 210.442 39.6528C209.86 40.3547 209.195 40.8773 208.449 41.2208C207.717 41.5493 206.948 41.7136 206.142 41.7136ZM222.635 41.7136C221.605 41.7136 220.686 41.5269 219.88 41.1536C219.073 40.7653 218.431 40.2427 217.953 39.5856C217.49 38.9136 217.259 38.152 217.259 37.3008C217.259 36.6139 217.401 36.0091 217.685 35.4864C217.968 34.9488 218.334 34.4784 218.782 34.0752C219.23 33.672 219.701 33.3435 220.193 33.0896V33C219.596 32.5669 219.081 32.0443 218.648 31.432C218.215 30.8197 217.998 30.0955 217.998 29.2592C217.998 28.408 218.2 27.6688 218.603 27.0416C219.021 26.3995 219.581 25.9067 220.283 25.5632C221 25.2197 221.814 25.048 222.725 25.048C223.68 25.048 224.502 25.2347 225.189 25.608C225.875 25.9664 226.406 26.4667 226.779 27.1088C227.167 27.7509 227.361 28.4976 227.361 29.3488C227.361 29.9013 227.249 30.4165 227.025 30.8944C226.801 31.3723 226.525 31.7979 226.197 32.1712C225.868 32.5445 225.532 32.8581 225.189 33.112V33.2016C225.681 33.4853 226.137 33.8139 226.555 34.1872C226.988 34.5605 227.331 35.0085 227.585 35.5312C227.839 36.0389 227.966 36.6512 227.966 37.368C227.966 38.1744 227.742 38.9061 227.294 39.5632C226.861 40.2203 226.241 40.7429 225.435 41.1312C224.643 41.5195 223.71 41.7136 222.635 41.7136ZM223.733 32.4624C224.21 32.0144 224.569 31.544 224.808 31.0512C225.062 30.5584 225.189 30.0432 225.189 29.5056C225.189 29.0128 225.091 28.5723 224.897 28.184C224.703 27.7957 224.412 27.4896 224.024 27.2656C223.65 27.0416 223.195 26.9296 222.657 26.9296C221.985 26.9296 221.425 27.1387 220.977 27.5568C220.529 27.96 220.305 28.5275 220.305 29.2592C220.305 29.8416 220.462 30.3269 220.776 30.7152C221.104 31.0885 221.522 31.4171 222.03 31.7008C222.553 31.9696 223.12 32.2235 223.733 32.4624ZM222.702 39.832C223.255 39.832 223.74 39.7275 224.158 39.5184C224.591 39.3093 224.927 39.0181 225.166 38.6448C225.405 38.2565 225.525 37.8011 225.525 37.2784C225.525 36.8155 225.42 36.4197 225.211 36.0912C225.002 35.7477 224.711 35.4491 224.337 35.1952C223.964 34.9413 223.531 34.7099 223.038 34.5008C222.56 34.2768 222.038 34.0603 221.47 33.8512C220.903 34.2245 220.44 34.68 220.081 35.2176C219.723 35.7552 219.544 36.36 219.544 37.032C219.544 37.5845 219.678 38.0699 219.947 38.488C220.231 38.9061 220.611 39.2347 221.089 39.4736C221.567 39.7125 222.105 39.832 222.702 39.832ZM233.596 41.4V39.272H237.224V28.2512H234.268V26.616C235.044 26.4667 235.716 26.2949 236.284 26.1008C236.866 25.8917 237.396 25.6453 237.874 25.3616H239.823V39.272H243.026V41.4H233.596Z" fill="white"/>
<path d="M74.9727 51.1907H82.9713V53.0947H82.2807V51.8067H75.6353V53.0947H74.9727V51.1907ZM76.1113 52.8613H81.3287V53.5147H76.1113V52.8613ZM81.954 48.456L82.4393 49.0253C81.9727 49.1187 81.45 49.2058 80.8713 49.2867C80.2927 49.3676 79.6829 49.4391 79.042 49.5013C78.4073 49.5573 77.7633 49.6071 77.11 49.6507C76.4629 49.6942 75.8345 49.7285 75.2247 49.7533C75.2185 49.66 75.1967 49.5573 75.1593 49.4453C75.1282 49.3271 75.0971 49.2276 75.066 49.1467C75.6696 49.1218 76.2887 49.0876 76.9233 49.044C77.5642 49.0005 78.1927 48.9507 78.8087 48.8947C79.4309 48.8387 80.0096 48.7733 80.5447 48.6987C81.0798 48.624 81.5496 48.5431 81.954 48.456ZM75.85 49.9493L76.4567 49.772C76.5936 49.9587 76.7242 50.1702 76.8487 50.4067C76.9731 50.6431 77.0602 50.8422 77.11 51.004L76.4753 51.2187C76.4256 51.0445 76.3385 50.8391 76.214 50.6027C76.0958 50.36 75.9745 50.1422 75.85 49.9493ZM78.3327 49.744L78.958 49.604C79.07 49.8218 79.1727 50.0582 79.266 50.3133C79.3656 50.5622 79.4278 50.78 79.4527 50.9667L78.7993 51.1347C78.7682 50.9542 78.7091 50.7333 78.622 50.472C78.5349 50.2045 78.4385 49.9618 78.3327 49.744ZM81.5153 49.5853L82.234 49.8C82.122 49.9991 82.0007 50.2045 81.87 50.416C81.7456 50.6213 81.618 50.8205 81.4873 51.0133C81.3567 51.2062 81.2353 51.3773 81.1233 51.5267L80.5633 51.3307C80.6691 51.1751 80.7811 50.9978 80.8993 50.7987C81.0176 50.5933 81.1327 50.3849 81.2447 50.1733C81.3567 49.9556 81.4469 49.7596 81.5153 49.5853ZM81.0767 52.8613H81.226L81.3567 52.8333L81.8233 53.132C81.5371 53.7231 81.1638 54.2396 80.7033 54.6813C80.2491 55.1231 79.7296 55.4996 79.1447 55.8107C78.5598 56.1156 77.9313 56.3676 77.2593 56.5667C76.5936 56.772 75.9029 56.9338 75.1873 57.052C75.1625 56.996 75.1251 56.9276 75.0753 56.8467C75.0318 56.7658 74.982 56.688 74.926 56.6133C74.8762 56.5387 74.8296 56.4765 74.786 56.4267C75.4829 56.3271 76.1549 56.1902 76.802 56.016C77.4553 55.8356 78.0589 55.6085 78.6127 55.3347C79.1665 55.0609 79.6549 54.7311 80.078 54.3453C80.5011 53.9533 80.834 53.4991 81.0767 52.9827V52.8613ZM77.0167 53.3C77.3776 53.8725 77.8567 54.3702 78.454 54.7933C79.0576 55.2102 79.7545 55.5525 80.5447 55.82C81.3411 56.0876 82.2091 56.2805 83.1487 56.3987C83.0989 56.4485 83.046 56.5107 82.99 56.5853C82.9402 56.6662 82.8905 56.7471 82.8407 56.828C82.7909 56.9089 82.7505 56.9836 82.7193 57.052C81.7736 56.9089 80.8993 56.688 80.0967 56.3893C79.294 56.0907 78.5785 55.7049 77.95 55.232C77.3278 54.7591 76.8145 54.1991 76.41 53.552L77.0167 53.3ZM87.974 50.5653H93.658V51.2747H87.974V50.5653ZM91.7633 48.6053H92.482V56.1187C92.482 56.3862 92.4416 56.5822 92.3607 56.7067C92.2798 56.8311 92.1522 56.9213 91.978 56.9773C91.7976 57.0333 91.5425 57.0676 91.2127 57.08C90.8829 57.0925 90.466 57.0956 89.962 57.0893C89.9496 57.0271 89.9278 56.9525 89.8967 56.8653C89.8656 56.7845 89.8313 56.7005 89.794 56.6133C89.7567 56.5325 89.7193 56.4578 89.682 56.3893C89.9433 56.4018 90.1953 56.408 90.438 56.408C90.6869 56.4142 90.9016 56.4142 91.082 56.408C91.2625 56.408 91.3869 56.408 91.4553 56.408C91.5673 56.4018 91.6451 56.3769 91.6887 56.3333C91.7385 56.296 91.7633 56.2245 91.7633 56.1187V48.6053ZM88.562 52.544L89.1687 52.2547C89.3305 52.4973 89.4985 52.7587 89.6727 53.0387C89.8531 53.3187 90.0242 53.5893 90.186 53.8507C90.3478 54.112 90.4785 54.3391 90.578 54.532L89.9247 54.8867C89.8313 54.6876 89.7069 54.4542 89.5513 54.1867C89.402 53.9191 89.2402 53.6422 89.066 53.356C88.8918 53.0636 88.7238 52.7929 88.562 52.544ZM86.49 51.032L87.19 50.332V50.3413V57.0613H86.49V51.032ZM87.5073 48.5493L88.1887 48.764C87.9771 49.3053 87.7313 49.8373 87.4513 50.36C87.1713 50.8827 86.8696 51.3742 86.546 51.8347C86.2225 52.2889 85.8865 52.6933 85.538 53.048C85.5131 52.992 85.4727 52.9205 85.4167 52.8333C85.3669 52.74 85.314 52.6498 85.258 52.5627C85.202 52.4756 85.1491 52.404 85.0993 52.348C85.4229 52.0431 85.734 51.6885 86.0327 51.284C86.3313 50.8796 86.6051 50.444 86.854 49.9773C87.1091 49.5107 87.3269 49.0347 87.5073 48.5493ZM99.1367 49.604H103.813V50.2293H99.1367V49.604ZM98.7447 51.4147H104.205V52.0493H98.7447V51.4147ZM98.7913 53.104H104.111V53.7293H98.7913V53.104ZM101.097 48.484H101.787V51.8067H101.097V48.484ZM102.329 51.9467H103.019V56.2493C103.019 56.4485 102.991 56.6009 102.935 56.7067C102.879 56.8187 102.78 56.8996 102.637 56.9493C102.487 57.0053 102.291 57.0396 102.049 57.052C101.806 57.0645 101.495 57.0707 101.115 57.0707C101.103 56.9773 101.072 56.8653 101.022 56.7347C100.978 56.6102 100.932 56.5013 100.882 56.408C101.168 56.4142 101.43 56.4173 101.666 56.4173C101.902 56.4236 102.058 56.4236 102.133 56.4173C102.207 56.4173 102.257 56.4049 102.282 56.38C102.313 56.3551 102.329 56.3085 102.329 56.24V51.9467ZM99.3607 54.3827L99.9207 54.056C100.076 54.2116 100.235 54.3858 100.397 54.5787C100.558 54.7716 100.705 54.9613 100.835 55.148C100.972 55.3347 101.075 55.5058 101.143 55.6613L100.546 56.0253C100.478 55.8698 100.378 55.6987 100.247 55.512C100.123 55.3191 99.9829 55.1262 99.8273 54.9333C99.6718 54.7342 99.5162 54.5507 99.3607 54.3827ZM96.2527 49.1H98.586V55.2413H96.2527V54.6067H97.9233V49.744H96.2527V49.1ZM96.2807 51.816H98.2313V52.4507H96.2807V51.816ZM95.9167 49.1H96.57V56.0067H95.9167V49.1ZM108.909 54.2147H111.737V54.756H108.909V54.2147ZM108.871 52.8053H112.054V56.212H108.871V55.6613H111.401V53.356H108.871V52.8053ZM108.573 52.8053H109.207V56.688H108.573V52.8053ZM106.846 50.22H109.441V50.7333H106.846V50.22ZM111.149 50.22H113.799V50.7333H111.149V50.22ZM113.501 48.8947H114.21V56.156C114.21 56.3738 114.179 56.5449 114.117 56.6693C114.061 56.7938 113.955 56.8871 113.799 56.9493C113.65 57.0116 113.445 57.0489 113.183 57.0613C112.928 57.0738 112.608 57.08 112.222 57.08C112.21 57.0116 112.191 56.9338 112.166 56.8467C112.141 56.7596 112.11 56.6725 112.073 56.5853C112.042 56.4982 112.01 56.4236 111.979 56.3613C112.166 56.3676 112.346 56.3707 112.521 56.3707C112.701 56.3707 112.86 56.3707 112.997 56.3707C113.134 56.3707 113.23 56.3707 113.286 56.3707C113.367 56.3645 113.423 56.3458 113.454 56.3147C113.485 56.2836 113.501 56.2276 113.501 56.1467V48.8947ZM106.902 48.8947H109.889V52.096H106.902V51.564H109.235V49.436H106.902V48.8947ZM113.855 48.8947V49.436H111.401V51.5733H113.855V52.1147H110.738V48.8947H113.855ZM106.501 48.8947H107.201V57.0893H106.501V48.8947ZM120.143 56.3333V55.624H121.673V50.5187H120.451V49.9773C120.755 49.9213 121.02 49.8529 121.244 49.772C121.474 49.6911 121.683 49.5978 121.869 49.492H122.523V55.624H123.895V56.3333H120.143ZM128.213 56.4547C127.784 56.4547 127.407 56.324 127.084 56.0627C126.766 55.8013 126.521 55.4062 126.346 54.8773C126.172 54.3485 126.085 53.6858 126.085 52.8893C126.085 52.0929 126.172 51.4365 126.346 50.92C126.521 50.3973 126.766 50.0085 127.084 49.7533C127.407 49.4982 127.784 49.3707 128.213 49.3707C128.649 49.3707 129.025 49.5013 129.342 49.7627C129.66 50.0178 129.905 50.4036 130.08 50.92C130.254 51.4365 130.341 52.0929 130.341 52.8893C130.341 53.6858 130.254 54.3485 130.08 54.8773C129.905 55.4062 129.66 55.8013 129.342 56.0627C129.025 56.324 128.649 56.4547 128.213 56.4547ZM128.213 55.764C128.474 55.764 128.701 55.6645 128.894 55.4653C129.093 55.2662 129.246 54.9551 129.352 54.532C129.464 54.1027 129.52 53.5551 129.52 52.8893C129.52 52.2236 129.464 51.6822 129.352 51.2653C129.246 50.8422 129.093 50.5342 128.894 50.3413C128.701 50.1422 128.474 50.0427 128.213 50.0427C127.958 50.0427 127.731 50.1422 127.532 50.3413C127.333 50.5342 127.177 50.8422 127.065 51.2653C126.959 51.6822 126.906 52.2236 126.906 52.8893C126.906 53.5551 126.959 54.1027 127.065 54.532C127.177 54.9551 127.333 55.2662 127.532 55.4653C127.731 55.6645 127.958 55.764 128.213 55.764ZM133.213 52.6933C133.045 52.6933 132.899 52.6342 132.774 52.516C132.656 52.3916 132.597 52.2329 132.597 52.04C132.597 51.8471 132.656 51.6916 132.774 51.5733C132.899 51.4489 133.045 51.3867 133.213 51.3867C133.381 51.3867 133.524 51.4489 133.642 51.5733C133.767 51.6916 133.829 51.8471 133.829 52.04C133.829 52.2329 133.767 52.3916 133.642 52.516C133.524 52.6342 133.381 52.6933 133.213 52.6933ZM133.213 56.4547C133.045 56.4547 132.899 56.3956 132.774 56.2773C132.656 56.1529 132.597 55.9973 132.597 55.8107C132.597 55.6116 132.656 55.4529 132.774 55.3347C132.899 55.2165 133.045 55.1573 133.213 55.1573C133.381 55.1573 133.524 55.2165 133.642 55.3347C133.767 55.4529 133.829 55.6116 133.829 55.8107C133.829 55.9973 133.767 56.1529 133.642 56.2773C133.524 56.3956 133.381 56.4547 133.213 56.4547ZM138.228 56.4547C137.798 56.4547 137.422 56.324 137.098 56.0627C136.781 55.8013 136.535 55.4062 136.361 54.8773C136.187 54.3485 136.1 53.6858 136.1 52.8893C136.1 52.0929 136.187 51.4365 136.361 50.92C136.535 50.3973 136.781 50.0085 137.098 49.7533C137.422 49.4982 137.798 49.3707 138.228 49.3707C138.663 49.3707 139.04 49.5013 139.357 49.7627C139.674 50.0178 139.92 50.4036 140.094 50.92C140.269 51.4365 140.356 52.0929 140.356 52.8893C140.356 53.6858 140.269 54.3485 140.094 54.8773C139.92 55.4062 139.674 55.8013 139.357 56.0627C139.04 56.324 138.663 56.4547 138.228 56.4547ZM138.228 55.764C138.489 55.764 138.716 55.6645 138.909 55.4653C139.108 55.2662 139.261 54.9551 139.366 54.532C139.478 54.1027 139.534 53.5551 139.534 52.8893C139.534 52.2236 139.478 51.6822 139.366 51.2653C139.261 50.8422 139.108 50.5342 138.909 50.3413C138.716 50.1422 138.489 50.0427 138.228 50.0427C137.973 50.0427 137.746 50.1422 137.546 50.3413C137.347 50.5342 137.192 50.8422 137.08 51.2653C136.974 51.6822 136.921 52.2236 136.921 52.8893C136.921 53.5551 136.974 54.1027 137.08 54.532C137.192 54.9551 137.347 55.2662 137.546 55.4653C137.746 55.6645 137.973 55.764 138.228 55.764ZM144.525 56.4547C144.095 56.4547 143.719 56.324 143.395 56.0627C143.078 55.8013 142.832 55.4062 142.658 54.8773C142.484 54.3485 142.397 53.6858 142.397 52.8893C142.397 52.0929 142.484 51.4365 142.658 50.92C142.832 50.3973 143.078 50.0085 143.395 49.7533C143.719 49.4982 144.095 49.3707 144.525 49.3707C144.96 49.3707 145.337 49.5013 145.654 49.7627C145.971 50.0178 146.217 50.4036 146.391 50.92C146.566 51.4365 146.653 52.0929 146.653 52.8893C146.653 53.6858 146.566 54.3485 146.391 54.8773C146.217 55.4062 145.971 55.8013 145.654 56.0627C145.337 56.324 144.96 56.4547 144.525 56.4547ZM144.525 55.764C144.786 55.764 145.013 55.6645 145.206 55.4653C145.405 55.2662 145.558 54.9551 145.663 54.532C145.775 54.1027 145.831 53.5551 145.831 52.8893C145.831 52.2236 145.775 51.6822 145.663 51.2653C145.558 50.8422 145.405 50.5342 145.206 50.3413C145.013 50.1422 144.786 50.0427 144.525 50.0427C144.27 50.0427 144.043 50.1422 143.843 50.3413C143.644 50.5342 143.489 50.8422 143.377 51.2653C143.271 51.6822 143.218 52.2236 143.218 52.8893C143.218 53.5551 143.271 54.1027 143.377 54.532C143.489 54.9551 143.644 55.2662 143.843 55.4653C144.043 55.6645 144.27 55.764 144.525 55.764ZM152.633 53.048C152.384 52.8116 152.141 52.6249 151.905 52.488C151.674 52.3511 151.388 52.2827 151.046 52.2827C150.679 52.2827 150.34 52.3978 150.029 52.628C149.724 52.852 149.475 53.1476 149.282 53.5147L148.619 53.16C148.912 52.6249 149.266 52.2205 149.683 51.9467C150.106 51.6667 150.564 51.5267 151.055 51.5267C151.478 51.5267 151.852 51.6138 152.175 51.788C152.505 51.956 152.832 52.2018 153.155 52.5253C153.404 52.7618 153.647 52.9485 153.883 53.0853C154.12 53.2222 154.406 53.2907 154.742 53.2907C155.109 53.2907 155.445 53.1787 155.75 52.9547C156.061 52.7245 156.313 52.4258 156.506 52.0587L157.169 52.4133C156.876 52.9485 156.518 53.356 156.095 53.636C155.678 53.9098 155.224 54.0467 154.733 54.0467C154.316 54.0467 153.942 53.9627 153.613 53.7947C153.283 53.6205 152.956 53.3716 152.633 53.048ZM159.502 56.3333V55.624H161.033V50.5187H159.81V49.9773C160.115 49.9213 160.379 49.8529 160.603 49.772C160.833 49.6911 161.042 49.5978 161.229 49.492H161.882V55.624H163.254V56.3333H159.502ZM167.171 56.4547C166.798 56.4547 166.474 56.3893 166.2 56.2587C165.933 56.1218 165.706 55.9538 165.519 55.7547L165.986 55.2227C166.135 55.3845 166.309 55.512 166.508 55.6053C166.714 55.6987 166.925 55.7453 167.143 55.7453C167.373 55.7453 167.591 55.6925 167.796 55.5867C168.002 55.4809 168.182 55.3067 168.338 55.064C168.499 54.8151 168.624 54.4916 168.711 54.0933C168.804 53.6951 168.851 53.2036 168.851 52.6187C168.851 52.0587 168.792 51.5858 168.674 51.2C168.562 50.8142 168.394 50.5249 168.17 50.332C167.946 50.1329 167.675 50.0333 167.358 50.0333C167.14 50.0333 166.944 50.0987 166.77 50.2293C166.595 50.36 166.455 50.5405 166.35 50.7707C166.244 51.0009 166.191 51.2747 166.191 51.592C166.191 51.8969 166.235 52.1645 166.322 52.3947C166.415 52.6187 166.552 52.7929 166.732 52.9173C166.919 53.0418 167.146 53.104 167.414 53.104C167.644 53.104 167.883 53.0325 168.132 52.8893C168.387 52.74 168.63 52.4973 168.86 52.1613L168.898 52.8427C168.761 53.0169 168.602 53.1725 168.422 53.3093C168.247 53.4462 168.061 53.552 167.862 53.6267C167.669 53.7013 167.473 53.7387 167.274 53.7387C166.894 53.7387 166.561 53.6578 166.275 53.496C165.995 53.3342 165.777 53.0947 165.622 52.7773C165.466 52.4538 165.388 52.0587 165.388 51.592C165.388 51.144 165.479 50.7551 165.659 50.4253C165.839 50.0893 166.076 49.8311 166.368 49.6507C166.667 49.464 166.994 49.3707 167.348 49.3707C167.678 49.3707 167.983 49.4391 168.263 49.576C168.543 49.7067 168.786 49.9089 168.991 50.1827C169.196 50.4502 169.358 50.7862 169.476 51.1907C169.595 51.5951 169.654 52.0711 169.654 52.6187C169.654 53.3093 169.585 53.9005 169.448 54.392C169.311 54.8773 169.125 55.2725 168.888 55.5773C168.652 55.8822 168.384 56.1062 168.086 56.2493C167.793 56.3862 167.488 56.4547 167.171 56.4547ZM172.572 52.6933C172.404 52.6933 172.258 52.6342 172.133 52.516C172.015 52.3916 171.956 52.2329 171.956 52.04C171.956 51.8471 172.015 51.6916 172.133 51.5733C172.258 51.4489 172.404 51.3867 172.572 51.3867C172.74 51.3867 172.883 51.4489 173.001 51.5733C173.126 51.6916 173.188 51.8471 173.188 52.04C173.188 52.2329 173.126 52.3916 173.001 52.516C172.883 52.6342 172.74 52.6933 172.572 52.6933ZM172.572 56.4547C172.404 56.4547 172.258 56.3956 172.133 56.2773C172.015 56.1529 171.956 55.9973 171.956 55.8107C171.956 55.6116 172.015 55.4529 172.133 55.3347C172.258 55.2165 172.404 55.1573 172.572 55.1573C172.74 55.1573 172.883 55.2165 173.001 55.3347C173.126 55.4529 173.188 55.6116 173.188 55.8107C173.188 55.9973 173.126 56.1529 173.001 56.2773C172.883 56.3956 172.74 56.4547 172.572 56.4547ZM177.587 56.4547C177.158 56.4547 176.781 56.324 176.458 56.0627C176.14 55.8013 175.895 55.4062 175.72 54.8773C175.546 54.3485 175.459 53.6858 175.459 52.8893C175.459 52.0929 175.546 51.4365 175.72 50.92C175.895 50.3973 176.14 50.0085 176.458 49.7533C176.781 49.4982 177.158 49.3707 177.587 49.3707C178.023 49.3707 178.399 49.5013 178.716 49.7627C179.034 50.0178 179.279 50.4036 179.454 50.92C179.628 51.4365 179.715 52.0929 179.715 52.8893C179.715 53.6858 179.628 54.3485 179.454 54.8773C179.279 55.4062 179.034 55.8013 178.716 56.0627C178.399 56.324 178.023 56.4547 177.587 56.4547ZM177.587 55.764C177.848 55.764 178.075 55.6645 178.268 55.4653C178.467 55.2662 178.62 54.9551 178.726 54.532C178.838 54.1027 178.894 53.5551 178.894 52.8893C178.894 52.2236 178.838 51.6822 178.726 51.2653C178.62 50.8422 178.467 50.5342 178.268 50.3413C178.075 50.1422 177.848 50.0427 177.587 50.0427C177.332 50.0427 177.105 50.1422 176.906 50.3413C176.707 50.5342 176.551 50.8422 176.439 51.2653C176.333 51.6822 176.28 52.2236 176.28 52.8893C176.28 53.5551 176.333 54.1027 176.439 54.532C176.551 54.9551 176.707 55.2662 176.906 55.4653C177.105 55.6645 177.332 55.764 177.587 55.764ZM183.884 56.4547C183.455 56.4547 183.078 56.324 182.755 56.0627C182.437 55.8013 182.192 55.4062 182.017 54.8773C181.843 54.3485 181.756 53.6858 181.756 52.8893C181.756 52.0929 181.843 51.4365 182.017 50.92C182.192 50.3973 182.437 50.0085 182.755 49.7533C183.078 49.4982 183.455 49.3707 183.884 49.3707C184.32 49.3707 184.696 49.5013 185.013 49.7627C185.331 50.0178 185.577 50.4036 185.751 50.92C185.925 51.4365 186.012 52.0929 186.012 52.8893C186.012 53.6858 185.925 54.3485 185.751 54.8773C185.577 55.4062 185.331 55.8013 185.013 56.0627C184.696 56.324 184.32 56.4547 183.884 56.4547ZM183.884 55.764C184.145 55.764 184.373 55.6645 184.565 55.4653C184.765 55.2662 184.917 54.9551 185.023 54.532C185.135 54.1027 185.191 53.5551 185.191 52.8893C185.191 52.2236 185.135 51.6822 185.023 51.2653C184.917 50.8422 184.765 50.5342 184.565 50.3413C184.373 50.1422 184.145 50.0427 183.884 50.0427C183.629 50.0427 183.402 50.1422 183.203 50.3413C183.004 50.5342 182.848 50.8422 182.736 51.2653C182.63 51.6822 182.577 52.2236 182.577 52.8893C182.577 53.5551 182.63 54.1027 182.736 54.532C182.848 54.9551 183.004 55.2662 183.203 55.4653C183.402 55.6645 183.629 55.764 183.884 55.764Z" fill="white"/>
</svg>
