<svg width="26" height="25" viewBox="0 0 26 25" fill="none" xmlns="http://www.w3.org/2000/svg">
<path d="M14.285 0C15.6912 0.00375 16.405 0.01125 17.0212 0.02875L17.2637 0.0375C17.5437 0.0475 17.82 0.0599999 18.1537 0.0749999C19.4837 0.1375 20.3912 0.3475 21.1875 0.65625C22.0125 0.97375 22.7075 1.40375 23.4025 2.0975C24.0383 2.72217 24.5302 3.47809 24.8437 4.3125C25.1525 5.10875 25.3625 6.01625 25.425 7.3475C25.44 7.68 25.4525 7.95625 25.4625 8.2375L25.47 8.48C25.4887 9.095 25.4962 9.80875 25.4987 11.215L25.5 12.1475V13.785C25.503 14.6968 25.4934 15.6085 25.4712 16.52L25.4637 16.7625C25.4537 17.0437 25.4412 17.32 25.4262 17.6525C25.3637 18.9837 25.1512 19.89 24.8437 20.6875C24.5302 21.5219 24.0383 22.2778 23.4025 22.9025C22.7778 23.5384 22.0219 24.0302 21.1875 24.3438C20.3912 24.6525 19.4837 24.8625 18.1537 24.925L17.2637 24.9625L17.0212 24.97C16.405 24.9875 15.6912 24.9963 14.285 24.9988L13.3525 25H11.7162C10.8041 25.0032 9.89188 24.9936 8.97998 24.9712L8.73748 24.9638C8.44074 24.9525 8.14407 24.9396 7.84748 24.925C6.51748 24.8625 5.60998 24.6525 4.81248 24.3438C3.97852 24.0301 3.22303 23.5382 2.59873 22.9025C1.96241 22.278 1.47011 21.522 1.15623 20.6875C0.847479 19.8912 0.637479 18.9837 0.574979 17.6525L0.537479 16.7625L0.531229 16.52C0.508186 15.6085 0.497768 14.6968 0.499979 13.785V11.215C0.496519 10.3033 0.505686 9.3915 0.527479 8.48L0.536229 8.2375C0.546229 7.95625 0.558729 7.68 0.573729 7.3475C0.636229 6.01625 0.846229 5.11 1.15498 4.3125C1.4696 3.47775 1.96276 2.7218 2.59998 2.0975C3.22392 1.46194 3.97896 0.970092 4.81248 0.65625C5.60998 0.3475 6.51623 0.1375 7.84748 0.0749999C8.17998 0.0599999 8.45748 0.0475 8.73748 0.0375L8.97998 0.0299999C9.89147 0.00779088 10.8032 -0.00179337 11.715 0.00124991L14.285 0ZM13 6.25C11.3424 6.25 9.75266 6.90848 8.58056 8.08058C7.40846 9.25268 6.74998 10.8424 6.74998 12.5C6.74998 14.1576 7.40846 15.7473 8.58056 16.9194C9.75266 18.0915 11.3424 18.75 13 18.75C14.6576 18.75 16.2473 18.0915 17.4194 16.9194C18.5915 15.7473 19.25 14.1576 19.25 12.5C19.25 10.8424 18.5915 9.25268 17.4194 8.08058C16.2473 6.90848 14.6576 6.25 13 6.25ZM13 8.75C13.4924 8.74992 13.9801 8.84683 14.4351 9.03521C14.8901 9.22359 15.3035 9.49975 15.6518 9.84791C16.0001 10.1961 16.2764 10.6094 16.4649 11.0644C16.6534 11.5193 16.7505 12.0069 16.7506 12.4994C16.7507 12.9918 16.6538 13.4795 16.4654 13.9345C16.277 14.3895 16.0009 14.8029 15.6527 15.1512C15.3045 15.4995 14.8912 15.7758 14.4362 15.9643C13.9813 16.1528 13.4937 16.2499 13.0012 16.25C12.0067 16.25 11.0528 15.8549 10.3496 15.1517C9.64632 14.4484 9.25123 13.4946 9.25123 12.5C9.25123 11.5054 9.64632 10.5516 10.3496 9.84835C11.0528 9.14509 12.0067 8.75 13.0012 8.75M19.5637 4.375C19.1493 4.375 18.7519 4.53962 18.4589 4.83265C18.1658 5.12567 18.0012 5.5231 18.0012 5.9375C18.0012 6.3519 18.1658 6.74933 18.4589 7.04235C18.7519 7.33538 19.1493 7.5 19.5637 7.5C19.9781 7.5 20.3756 7.33538 20.6686 7.04235C20.9616 6.74933 21.1262 6.3519 21.1262 5.9375C21.1262 5.5231 20.9616 5.12567 20.6686 4.83265C20.3756 4.53962 19.9781 4.375 19.5637 4.375Z" fill="white"/>
</svg>
