<svg width="23" height="23" viewBox="0 0 23 23" fill="none" xmlns="http://www.w3.org/2000/svg">
<path d="M21.7383 -0.00976562H1.26172C0.925018 -0.00976562 0.602108 0.123988 0.364025 0.362071C0.125941 0.600155 -0.0078125 0.923065 -0.0078125 1.25977V21.7383C-0.0078125 22.075 0.125941 22.3979 0.364025 22.636C0.602108 22.8741 0.925018 23.0078 1.26172 23.0078H12.2813V14.0957H9.28516V10.6211H12.2813V8.05859C12.2813 5.08594 14.0977 3.4668 16.75 3.4668C17.6451 3.4636 18.5396 3.50925 19.4297 3.60352V6.71094H17.5957C16.1523 6.71094 15.873 7.39648 15.873 8.40234V10.6211H19.3125L18.8652 14.0957H15.873V23.0098H21.7324C22.069 23.0092 22.3916 22.8753 22.6295 22.6374C22.8675 22.3994 23.0014 22.0768 23.002 21.7402V1.26172C23.0025 0.925693 22.8698 0.603166 22.6329 0.364828C22.396 0.126491 22.0743 -0.00821514 21.7383 -0.00976562Z" fill="white"/>
</svg>
