<svg width="29" height="23" viewBox="0 0 29 23" fill="none" xmlns="http://www.w3.org/2000/svg">
<path d="M27.975 3.27497C27.625 2.04997 26.75 1.17497 25.525 0.824966C21.85 0.474966 18.175 0.124966 14.5 0.299966C10.825 0.299966 7.15001 0.474966 3.47501 0.824966C2.42501 1.17497 1.37501 2.22497 1.02501 3.27497C0.325647 8.736 0.325647 14.2639 1.02501 19.725C1.37501 20.95 2.25001 21.825 3.47501 22.175C7.15001 22.525 10.825 22.875 14.5 22.7C18.175 22.7 21.85 22.525 25.525 22.175C26.75 21.825 27.625 20.95 27.975 19.725C28.6744 14.2639 28.6744 8.736 27.975 3.27497ZM11 16.75V6.24997L20.1 11.5L11 16.75Z" fill="white"/>
</svg>
