<svg width="21" height="20" viewBox="0 0 21 20" fill="none" xmlns="http://www.w3.org/2000/svg">
<path d="M18.1667 0.839844C18.6503 0.839691 19.116 1.02232 19.4706 1.35111C19.8252 1.67991 20.0424 2.13057 20.0786 2.61276L20.0834 2.75651V14.2565C20.0836 14.7401 19.9009 15.2058 19.5721 15.5604C19.2434 15.9149 18.7927 16.1321 18.3105 16.1684L18.1667 16.1732H2.83341C2.34986 16.1733 1.88412 15.9907 1.52956 15.6619C1.17499 15.3331 0.957806 14.8825 0.92154 14.4003L0.916748 14.2565V2.75651C0.916595 2.27296 1.09922 1.80722 1.42802 1.45265C1.75681 1.09809 2.20747 0.880902 2.68966 0.844636L2.83341 0.839844H18.1667ZM18.1667 4.11159L11.5159 10.7624C11.2464 11.0316 10.881 11.1828 10.5001 11.1828C10.1191 11.1828 9.75378 11.0316 9.48425 10.7624L2.83341 4.11159V14.2565H18.1667V4.11159ZM16.8117 2.75651H4.1885L10.5001 9.06809L16.8117 2.75651Z" fill="white"/>
</svg>
