<svg width="20" height="21" viewBox="0 0 20 21" fill="none" xmlns="http://www.w3.org/2000/svg">
<path d="M19.2576 8.82227L10.6326 1.15561C10.4577 1.00197 10.2329 0.917236 10.0001 0.917236C9.76728 0.917236 9.54245 1.00197 9.36757 1.15561L0.742563 8.82227C0.595972 8.95195 0.492599 9.12339 0.446342 9.31356C0.400084 9.50373 0.413161 9.70351 0.483813 9.88602C0.55331 10.0661 0.67558 10.221 0.83461 10.3305C0.99364 10.4399 1.18202 10.4988 1.37506 10.4994H2.3334V19.1244C2.3334 19.3785 2.43436 19.6223 2.61409 19.802C2.79381 19.9817 3.03756 20.0827 3.29173 20.0827H16.7084C16.9626 20.0827 17.2063 19.9817 17.386 19.802C17.5658 19.6223 17.6667 19.3785 17.6667 19.1244V10.4994H18.6251C18.8181 10.4988 19.0065 10.4399 19.1655 10.3305C19.3245 10.221 19.4468 10.0661 19.5163 9.88602C19.587 9.70351 19.6 9.50373 19.5538 9.31356C19.5075 9.12339 19.4042 8.95195 19.2576 8.82227ZM10.9584 18.166H9.04173V15.291C9.04173 15.0369 9.1427 14.7931 9.32242 14.6134C9.50214 14.4337 9.7459 14.3327 10.0001 14.3327C10.2542 14.3327 10.498 14.4337 10.6777 14.6134C10.8574 14.7931 10.9584 15.0369 10.9584 15.291V18.166ZM15.7501 18.166H12.8751V15.291C12.8751 14.5285 12.5722 13.7973 12.033 13.2581C11.4938 12.7189 10.7626 12.416 10.0001 12.416C9.23757 12.416 8.5063 12.7189 7.96713 13.2581C7.42796 13.7973 7.12506 14.5285 7.12506 15.291V18.166H4.25006V10.4994H15.7501V18.166ZM3.89548 8.58269L10.0001 3.15852L16.1046 8.58269H3.89548Z" fill="white"/>
</svg>
