<svg width="16" height="21" viewBox="0 0 16 21" fill="none" xmlns="http://www.w3.org/2000/svg">
<path d="M0.333252 2.83341C0.333252 2.32508 0.535186 1.83757 0.89463 1.47813C1.25408 1.11868 1.74159 0.916748 2.24992 0.916748H9.91658C10.1707 0.916802 10.4144 1.0178 10.5941 1.19754L15.3858 5.98921C15.5655 6.16889 15.6665 6.4126 15.6666 6.66675V18.1667C15.6666 18.6751 15.4647 19.1626 15.1052 19.522C14.7458 19.8815 14.2582 20.0834 13.7499 20.0834H2.24992C1.74159 20.0834 1.25408 19.8815 0.89463 19.522C0.535186 19.1626 0.333252 18.6751 0.333252 18.1667V2.83341ZM13.3532 6.66675L9.91658 3.23016V6.66675H13.3532ZM7.99992 2.83341H2.24992V18.1667H13.7499V8.58341H8.95825C8.70409 8.58341 8.46033 8.48245 8.28061 8.30272C8.10089 8.123 7.99992 7.87925 7.99992 7.62508V2.83341ZM4.16659 11.4584C4.16659 11.2042 4.26755 10.9605 4.44727 10.7808C4.627 10.601 4.87075 10.5001 5.12492 10.5001H10.8749C11.1291 10.5001 11.3728 10.601 11.5526 10.7808C11.7323 10.9605 11.8333 11.2042 11.8333 11.4584C11.8333 11.7126 11.7323 11.9563 11.5526 12.1361C11.3728 12.3158 11.1291 12.4167 10.8749 12.4167H5.12492C4.87075 12.4167 4.627 12.3158 4.44727 12.1361C4.26755 11.9563 4.16659 11.7126 4.16659 11.4584ZM4.16659 15.2917C4.16659 15.0376 4.26755 14.7938 4.44727 14.6141C4.627 14.4344 4.87075 14.3334 5.12492 14.3334H10.8749C11.1291 14.3334 11.3728 14.4344 11.5526 14.6141C11.7323 14.7938 11.8333 15.0376 11.8333 15.2917C11.8333 15.5459 11.7323 15.7897 11.5526 15.9694C11.3728 16.1491 11.1291 16.2501 10.8749 16.2501H5.12492C4.87075 16.2501 4.627 16.1491 4.44727 15.9694C4.26755 15.7897 4.16659 15.5459 4.16659 15.2917Z" fill="white"/>
</svg>
